<svg version="1.1" id="Layer_1" xmlns="http://www.w3.org/2000/svg" xmlns:xlink="http://www.w3.org/1999/xlink" x="0px" y="0px"
	 width="100%" viewBox="0 0 171 219" enable-background="new 0 0 171 219" xml:space="preserve">
<path fill="#FDFDFD" opacity="1.000000" stroke="none" 
	d="
M85.000000,220.000000 
	C56.666668,220.000000 28.833336,220.000000 1.000004,220.000000 
	C1.000003,147.000000 1.000003,74.000015 1.000001,1.000014 
	C57.999989,1.000009 114.999977,1.000009 171.999969,1.000005 
	C171.999985,73.999985 171.999985,146.999969 172.000000,219.999969 
	C143.166672,220.000000 114.333336,220.000000 85.000000,220.000000 
M62.477551,211.032959 
	C63.892200,211.905441 65.421532,212.636444 66.702057,213.674393 
	C72.941185,218.731598 79.173531,218.426071 85.792854,214.284897 
	C89.725105,211.824814 94.145805,210.156891 98.150009,207.798523 
	C123.924957,192.617691 143.073181,171.551285 156.792511,144.810760 
	C176.689667,106.028946 165.204895,67.736313 124.785355,47.825657 
	C117.203262,44.090717 108.495529,42.640869 99.406250,39.860970 
	C101.626587,36.643036 103.543427,32.665398 106.541031,29.830570 
	C110.119247,26.446651 114.660278,24.093496 118.711487,21.192242 
	C121.082726,19.494097 124.264153,18.019115 122.334343,14.136146 
	C120.735023,10.918118 116.407524,9.471347 113.173820,11.634821 
	C109.218994,14.280746 104.830009,17.007383 102.242073,20.799988 
	C98.103516,26.865028 95.293610,33.836689 91.542610,41.166473 
	C78.213783,41.662201 64.503975,45.443413 51.356640,51.371712 
	C38.434196,57.198605 26.295012,64.286659 14.504845,74.009651 
	C67.470695,67.711327 109.864204,69.508675 123.374619,78.178307 
	C111.932983,78.178307 100.072235,77.885910 88.232635,78.260918 
	C76.496475,78.632629 64.695732,79.001884 53.257248,82.154396 
	C54.433975,82.894852 55.546520,82.964493 56.658329,83.044411 
	C89.813248,85.427521 110.820343,104.047867 116.681519,136.246735 
	C122.595657,168.736557 108.165138,194.062897 77.877220,204.114716 
	C76.181946,204.677338 73.969002,204.652954 72.272034,204.082993 
	C59.277206,199.718292 48.745274,191.740631 40.266926,181.118073 
	C26.157476,163.440292 19.383904,142.749847 16.027153,120.717598 
	C15.679722,118.437218 15.199411,116.177078 14.780757,113.907547 
	C9.275043,146.952637 23.818506,186.158066 62.477551,211.032959 
M106.826424,141.575592 
	C108.643028,141.916748 110.794739,142.992310 112.169479,142.365051 
	C113.255478,141.869522 114.144653,139.115799 113.825310,137.646652 
	C110.196220,120.950676 103.351273,106.079041 88.779457,95.946808 
	C87.238472,94.875313 85.284538,94.397713 83.522186,93.644592 
	C95.875893,107.494568 103.951492,122.792221 106.826424,141.575592 
z"/>
<path fill="#191917" opacity="1.000000" stroke="none" 
	d="
M62.169605,210.842194 
	C23.818506,186.158066 9.275043,146.952637 14.780757,113.907547 
	C15.199411,116.177078 15.679722,118.437218 16.027153,120.717598 
	C19.383904,142.749847 26.157476,163.440292 40.266926,181.118073 
	C48.745274,191.740631 59.277206,199.718292 72.272034,204.082993 
	C73.969002,204.652954 76.181946,204.677338 77.877220,204.114716 
	C108.165138,194.062897 122.595657,168.736557 116.681519,136.246735 
	C110.820343,104.047867 89.813248,85.427521 56.658329,83.044411 
	C55.546520,82.964493 54.433975,82.894852 53.257248,82.154396 
	C64.695732,79.001884 76.496475,78.632629 88.232635,78.260918 
	C100.072235,77.885910 111.932983,78.178307 123.374619,78.178307 
	C109.864204,69.508675 67.470695,67.711327 14.504845,74.009651 
	C26.295012,64.286659 38.434196,57.198605 51.356640,51.371712 
	C64.503975,45.443413 78.213783,41.662201 91.542610,41.166473 
	C95.293610,33.836689 98.103516,26.865028 102.242073,20.799988 
	C104.830009,17.007383 109.218994,14.280746 113.173820,11.634821 
	C116.407524,9.471347 120.735023,10.918118 122.334343,14.136146 
	C124.264153,18.019115 121.082726,19.494097 118.711487,21.192242 
	C114.660278,24.093496 110.119247,26.446651 106.541031,29.830570 
	C103.543427,32.665398 101.626587,36.643036 99.406250,39.860970 
	C108.495529,42.640869 117.203262,44.090717 124.785355,47.825657 
	C165.204895,67.736313 176.689667,106.028946 156.792511,144.810760 
	C143.073181,171.551285 123.924957,192.617691 98.150009,207.798523 
	C94.145805,210.156891 89.725105,211.824814 85.792854,214.284897 
	C79.173531,218.426071 72.941185,218.731598 66.702057,213.674393 
	C65.421532,212.636444 63.892200,211.905441 62.169605,210.842194 
z"/>
<path fill="#222120" opacity="1.000000" stroke="none" 
	d="
M106.583237,141.250153 
	C103.951492,122.792221 95.875893,107.494568 83.522186,93.644592 
	C85.284538,94.397713 87.238472,94.875313 88.779457,95.946808 
	C103.351273,106.079041 110.196220,120.950676 113.825310,137.646652 
	C114.144653,139.115799 113.255478,141.869522 112.169479,142.365051 
	C110.794739,142.992310 108.643028,141.916748 106.583237,141.250153 
z"/>
</svg>